<svg id="svg22" xmlns="http://www.w3.org/2000/svg" width="791.24361" height="87.6" viewBox="0 0 791.24361 87.6"><path id="path2" d="M0,12.49l35.7-4.9v34.5H0M40,6.91,87.3,0V41.8H40M0,45.74H35.7v34.6L0,75.34M40,46.2H87.3V87.6L40,80.9" transform="translate(0.00002)" fill="#00188f"/><g id="text43"><path id="path98" d="M180.57,18.32832,166.06031,69.70353h-7.05782L148.43368,32.15735a23.5033,23.5033,0,0,1-.824-5.23067h-.14331a26.53924,26.53924,0,0,1-.93149,5.159L135.8944,69.70352h-6.98618L113.8611,18.32832h6.6279l10.92708,39.40916a25.864,25.864,0,0,1,.85984,5.159h.17912a30.45383,30.45383,0,0,1,1.11062-5.159l11.357-39.40916h5.76807L161.582,58.02409a29.03822,29.03822,0,0,1,.85983,4.80075h.14331a28.77725,28.77725,0,0,1,.96732-4.94406l10.49717-39.55246Z" transform="translate(0.00002)" fill="#00188f"/><path id="path100" d="M189.47651,23.70229a3.72265,3.72265,0,0,1-2.687-1.07479,3.62763,3.62763,0,0,1-1.11063-2.72282,3.7923,3.7923,0,0,1,3.79763-3.83343,3.70241,3.70241,0,0,1,2.72282,1.11062,3.76408,3.76408,0,0,1,0,5.4098A3.70233,3.70233,0,0,1,189.47651,23.70229Zm2.86612,46.00124h-5.87554V33.01719h5.87554Z" transform="translate(0.00002)" fill="#00188f"/><path id="path102" d="M233.77956,69.70353H227.904V48.78085q0-11.67945-8.5267-11.67944a9.28073,9.28073,0,0,0-7.30861,3.33186,12.26259,12.26259,0,0,0-2.86612,8.34758V69.70352h-5.87555V33.01719h5.87555v6.0905h.14331a13.24083,13.24083,0,0,1,12.0377-6.95034q6.01884,0,9.20743,3.90509,3.18854,3.86926,3.18855,11.2137Z" transform="translate(0.00002)" fill="#00188f"/><path id="path104" d="M275.28815,69.70353H269.4126V63.46972h-.14331q-4.08422,7.09365-12.61093,7.09365A13.77627,13.77627,0,0,1,245.588,65.65514q-4.12005-4.94406-4.12005-13.43494,0-9.09993,4.58578-14.58139a15.12479,15.12479,0,0,1,12.21684-5.48146q7.55939,0,10.99875,5.9472h.14331v-22.714h5.87555ZM269.4126,53.11586V47.70605a10.49529,10.49529,0,0,0-2.93777-7.52356,9.85343,9.85343,0,0,0-7.45191-3.08108,10.14565,10.14565,0,0,0-8.45506,3.94091q-3.08106,3.94092-3.08108,10.89126,0,6.3413,2.93777,10.03142a9.72957,9.72957,0,0,0,7.95348,3.6543,9.98222,9.98222,0,0,0,7.95349-3.54682A13.16613,13.16613,0,0,0,269.4126,53.11586Z" transform="translate(0.00002)" fill="#00188f"/><path id="path106" d="M301.678,70.56337q-8.13263,0-13.005-5.12319-4.8366-5.159-4.83658-13.6499,0-9.24326,5.05154-14.43808t13.64991-5.19485q8.20427,0,12.79007,5.05154,4.62157,5.05154,4.62161,14.00816,0,8.77749-4.97989,14.07982-4.94407,5.26649-13.29163,5.26649Zm.42994-33.462a11.15227,11.15227,0,0,0-8.95664,3.86926q-3.29608,3.83343-3.296,10.60465,0,6.52042,3.33188,10.2822a11.32352,11.32352,0,0,0,8.92081,3.76179q5.6964,0,8.74166-3.69013,3.08112-3.69012,3.08109-10.49717,0-6.87868-3.08109-10.60464Q307.80432,37.10142,302.10789,37.10141Z" transform="translate(0.00002)" fill="#00188f"/><path id="path108" d="M374.64222,33.01719,363.64347,69.70353H357.553L349.99357,43.4427a17.11394,17.11394,0,0,1-.57321-3.40352H349.277a16.06618,16.06618,0,0,1-.75235,3.33186l-8.20428,26.33249h-5.87555l-11.1062-36.68634h6.16217L337.096,60.6036a16.61487,16.61487,0,0,1,.50156,3.296h.28662a15.4176,15.4176,0,0,1,.64487-3.3677l8.45505-27.51475h5.374l7.59521,27.65806a19.74725,19.74725,0,0,1,.53742,3.296h.28662a15.24744,15.24744,0,0,1,.609-3.296l7.45193-27.65806Z" transform="translate(0.00002)" fill="#00188f"/><path id="path110" d="M378.318,68.378V62.07249a17.388,17.388,0,0,0,10.56882,3.54682q7.73853,0,7.73852-5.159a4.30126,4.30126,0,0,0-.68069-2.472,6.19364,6.19364,0,0,0-1.79132-1.82715,12.52572,12.52572,0,0,0-2.65116-1.39723q-1.50471-.64488-3.26022-1.32558a47.13124,47.13124,0,0,1-4.2992-1.93463,14.19256,14.19256,0,0,1-3.08108-2.22125,8.83153,8.83153,0,0,1-1.863-2.83029,10.21229,10.21229,0,0,1-.609-3.69013,8.671,8.671,0,0,1,1.18229-4.55,10.24182,10.24182,0,0,1,3.15274-3.33186,14.47894,14.47894,0,0,1,4.4783-2.04211,20.146,20.146,0,0,1,5.23068-.6807,21.048,21.048,0,0,1,8.5267,1.648v5.9472a16.61724,16.61724,0,0,0-9.31488-2.65116,10.42262,10.42262,0,0,0-2.9736.3941,7.22045,7.22045,0,0,0-2.29291,1.039,5.08587,5.08587,0,0,0-1.46887,1.648,4.31165,4.31165,0,0,0-.50159,2.07793,5.17591,5.17591,0,0,0,.50159,2.40038,5.49148,5.49148,0,0,0,1.54053,1.71967,11.63821,11.63821,0,0,0,2.43619,1.36141q1.433.609,3.26022,1.32558a42.48794,42.48794,0,0,1,4.37082,1.93463,14.20292,14.20292,0,0,1,3.29605,2.22125,8.279,8.279,0,0,1,2.07794,2.83029,9.94189,9.94189,0,0,1-.46576,8.56253,10.10849,10.10849,0,0,1-3.18857,3.33187,14.686,14.686,0,0,1-4.62161,1.97046,22.81924,22.81924,0,0,1-5.48144.64487A20.814,20.814,0,0,1,378.318,68.378Z" transform="translate(0.00002)" fill="#00188f"/><path id="path112" d="M428.26731,67.6256V60.53194a13.94667,13.94667,0,0,0,2.90195,1.93464,26.207,26.207,0,0,0,3.58264,1.46888,31.21063,31.21063,0,0,0,3.79761.89566,21.073,21.073,0,0,0,3.511.32244q5.55309,0,8.27591-2.04211a6.9991,6.9991,0,0,0,2.75864-5.9472,6.85738,6.85738,0,0,0-.93149-3.61847,9.80534,9.80534,0,0,0-2.50787-2.79447,23.04617,23.04617,0,0,0-3.83344-2.4362q-2.18541-1.18229-4.72909-2.472-2.687-1.3614-5.01572-2.75864a21.73455,21.73455,0,0,1-4.0484-3.08108,13.21231,13.21231,0,0,1-2.72281-3.79761A12.12468,12.12468,0,0,1,428.3389,31.19a11.65668,11.65668,0,0,1,1.54053-6.0905,13.15293,13.15293,0,0,1,4.0484-4.29919,18.37543,18.37543,0,0,1,5.69641-2.50785,26.37586,26.37586,0,0,1,6.55625-.824q7.59521,0,11.0704,1.82715v6.77121q-4.54994-3.15273-11.67938-3.15273a18.43889,18.43889,0,0,0-3.94092.42992,10.83107,10.83107,0,0,0-3.511,1.32558A7.77862,7.77862,0,0,0,435.61173,27.07a6.37132,6.37132,0,0,0-.96731,3.58266,7.53068,7.53068,0,0,0,.71652,3.40351,8.57625,8.57625,0,0,0,2.18542,2.61534,21.91235,21.91235,0,0,0,3.47516,2.29289q2.07794,1.11063,4.76492,2.43621,2.75868,1.3614,5.23069,2.86611a23.90886,23.90886,0,0,1,4.335,3.33187,14.496,14.496,0,0,1,2.93777,4.0484,11.22664,11.22664,0,0,1,1.11063,5.08736,12.87812,12.87812,0,0,1-1.5047,6.44877,12.03605,12.03605,0,0,1-4.01257,4.26336,17.05858,17.05858,0,0,1-5.8039,2.36454,31.15421,31.15421,0,0,1-6.95035.75236,25.99519,25.99519,0,0,1-3.00943-.215,34.00927,34.00927,0,0,1-3.65429-.57322,30.77856,30.77856,0,0,1-3.54685-.89566A11.4856,11.4856,0,0,1,428.26731,67.6256Z" transform="translate(0.00002)" fill="#00188f"/><path id="path114" d="M497.43394,52.82924H471.53138q.14333,6.12633,3.296,9.4582t8.67,3.33187a18.02544,18.02544,0,0,0,11.39282-4.08422v5.51728q-4.83659,3.511-12.79006,3.511-7.77435,0-12.21683-4.97989-4.44251-5.01571-4.44251-14.07982,0-8.56253,4.83658-13.93651a15.59707,15.59707,0,0,1,12.07352-5.4098q7.20112,0,11.14206,4.65745t3.94092,12.93337Zm-6.01886-4.97988q-.0358-5.08737-2.472-7.91766a8.30811,8.30811,0,0,0-6.69955-2.8303,9.49113,9.49113,0,0,0-7.05784,2.9736,13.49443,13.49443,0,0,0-3.58264,7.77435Z" transform="translate(0.00002)" fill="#00188f"/><path id="path116" d="M524.57609,38.96439a7.18454,7.18454,0,0,0-4.44251-1.18228,7.54229,7.54229,0,0,0-6.30548,3.54683q-2.5078,3.54682-2.50784,9.67315V69.70353h-5.87555V33.01719h5.87555v7.55939h.14331a12.69285,12.69285,0,0,1,3.83346-6.01886,8.7,8.7,0,0,1,5.76807-2.18541,9.59174,9.59174,0,0,1,3.511.50157Z" transform="translate(0.00002)" fill="#00188f"/><path id="path118" d="M558.88358,33.01719,544.26633,69.70353h-5.76806L524.59763,33.01719h6.44879l9.31488,26.65492A23.92429,23.92429,0,0,1,541.651,64.7953h.14331a24.22552,24.22552,0,0,1,1.14642-4.97989l9.74481-26.79823Z" transform="translate(0.00002)" fill="#00188f"/><path id="path120" d="M593.72843,52.82924H567.82584q.14328,6.12633,3.296,9.4582t8.67005,3.33187a18.02572,18.02572,0,0,0,11.39282-4.08422v5.51728q-4.83655,3.511-12.79,3.511-7.77429,0-12.21686-4.97989-4.44251-5.01571-4.4425-14.07982,0-8.56253,4.83654-13.93651a15.59719,15.59719,0,0,1,12.07355-5.4098q7.20117,0,11.142,4.65745t3.94092,12.93337Zm-6.01886-4.97988q-.03579-5.08737-2.472-7.91766a8.308,8.308,0,0,0-6.69952-2.8303,9.491,9.491,0,0,0-7.0578,2.9736,13.49437,13.49437,0,0,0-3.58264,7.77435Z" transform="translate(0.00002)" fill="#00188f"/><path id="path122" d="M620.87058,38.96439a7.18463,7.18463,0,0,0-4.4425-1.18228,7.54228,7.54228,0,0,0-6.30548,3.54683q-2.50791,3.54682-2.50788,9.67315V69.70353h-5.87555V33.01719h5.87555v7.55939h.14331a12.69252,12.69252,0,0,1,3.83344-6.01886,8.69991,8.69991,0,0,1,5.76806-2.18541,9.5917,9.5917,0,0,1,3.511.50157Z" transform="translate(0.00002)" fill="#00188f"/><path id="path124" d="M667.20145,31.79908a10.39869,10.39869,0,0,0-.75238-4.12,7.70693,7.70693,0,0,0-2.00628-2.90195,7.92575,7.92575,0,0,0-2.97358-1.7555,11.71452,11.71452,0,0,0-3.726-.57322,12.32431,12.32431,0,0,0-3.36767.46575,16.827,16.827,0,0,0-3.22437,1.28975,20.96855,20.96855,0,0,0-3.0094,1.97046,22.46379,22.46379,0,0,0-2.687,2.54368V22.41254a17.36674,17.36674,0,0,1,5.51727-3.65431,19.3838,19.3838,0,0,1,7.48773-1.28975,17.71617,17.71617,0,0,1,5.83973.93149,13.168,13.168,0,0,1,4.65747,2.65116,12.1473,12.1473,0,0,1,3.08105,4.335,14.42232,14.42232,0,0,1,1.14642,5.91138,19.79442,19.79442,0,0,1-.71655,5.51728,16.37682,16.37682,0,0,1-2.11377,4.65744,21.913,21.913,0,0,1-3.54681,4.19171,50.49394,50.49394,0,0,1-5.05152,4.08422q-3.61843,2.5795-5.983,4.40666a27.0065,27.0065,0,0,0-3.726,3.43934,10.10551,10.10551,0,0,0-1.93463,3.18856,11.321,11.321,0,0,0-.53742,3.65431h25.58014v5.26649H643.44852V67.15985a21.19794,21.19794,0,0,1,.71656-5.8039,15.07131,15.07131,0,0,1,2.36456-4.76493,26.75766,26.75766,0,0,1,4.29919-4.51414q2.687-2.25707,6.55628-5.08736a39.97261,39.97261,0,0,0,4.65747-3.83344,19.59948,19.59948,0,0,0,3.04529-3.6543,12.77537,12.77537,0,0,0,1.61218-3.69013,15.65145,15.65145,0,0,0,.50159-4.01257Z" transform="translate(0.00002)" fill="#00188f"/><path id="path126" d="M714.72886,43.801a49.73908,49.73908,0,0,1-1.18225,11.42866,26.29446,26.29446,0,0,1-3.36768,8.41923,15.16779,15.16779,0,0,1-5.40979,5.19485,14.82847,14.82847,0,0,1-7.27277,1.7555,14.04835,14.04835,0,0,1-6.91449-1.68385,14.66769,14.66769,0,0,1-5.08734-4.97988,25.153,25.153,0,0,1-3.15271-7.98931A49.75724,49.75724,0,0,1,681.267,45.0549a56.91909,56.91909,0,0,1,1.1106-11.8944,27.2656,27.2656,0,0,1,3.33185-8.63419,14.60976,14.60976,0,0,1,5.40979-5.2665,15.21927,15.21927,0,0,1,7.4519-1.79132q16.15777,0,16.15778,26.33248Zm-6.01886.57323q0-21.92583-10.42554-21.92583-10.99878,0-10.99872,22.31992.00009,20.8152,10.78375,20.8152Q708.70994,65.58348,708.71,44.37419Z" transform="translate(0.00002)" fill="#00188f"/></g><path id="path124-2" data-name="path124" d="M744.59389,31.79908a10.39869,10.39869,0,0,0-.75238-4.12,7.70693,7.70693,0,0,0-2.00628-2.90195,7.92579,7.92579,0,0,0-2.97357-1.7555,11.71463,11.71463,0,0,0-3.726-.57322,12.32431,12.32431,0,0,0-3.36767.46575,16.82729,16.82729,0,0,0-3.22437,1.28975,20.96855,20.96855,0,0,0-3.0094,1.97046,22.46379,22.46379,0,0,0-2.687,2.54368V22.41254a17.36674,17.36674,0,0,1,5.51727-3.65431,19.38382,19.38382,0,0,1,7.48774-1.28975A17.71616,17.71616,0,0,1,741.692,18.4a13.168,13.168,0,0,1,4.65747,2.65116,12.14717,12.14717,0,0,1,3.08105,4.335,14.42215,14.42215,0,0,1,1.14643,5.91138,19.794,19.794,0,0,1-.71656,5.51728,16.37682,16.37682,0,0,1-2.11377,4.65744,21.9123,21.9123,0,0,1-3.54681,4.19171,50.49374,50.49374,0,0,1-5.05151,4.08422q-3.61845,2.5795-5.983,4.40666a27.0065,27.0065,0,0,0-3.726,3.43934,10.10551,10.10551,0,0,0-1.93463,3.18856,11.321,11.321,0,0,0-.53741,3.65431h25.58014v5.26649H720.841V67.15985a21.19832,21.19832,0,0,1,.71656-5.8039,15.07152,15.07152,0,0,1,2.36456-4.76493,26.75766,26.75766,0,0,1,4.29919-4.51414q2.687-2.25707,6.55628-5.08736a39.97093,39.97093,0,0,0,4.65747-3.83344,19.59948,19.59948,0,0,0,3.04529-3.6543,12.77537,12.77537,0,0,0,1.61218-3.69013,15.65145,15.65145,0,0,0,.50159-4.01257Z" transform="translate(0.00002)" fill="#00188f"/><path id="path124-3" data-name="path124" d="M783.29009,31.79908a10.39869,10.39869,0,0,0-.75238-4.12,7.70693,7.70693,0,0,0-2.00628-2.90195,7.92579,7.92579,0,0,0-2.97357-1.7555,11.71463,11.71463,0,0,0-3.726-.57322,12.32431,12.32431,0,0,0-3.36767.46575,16.82729,16.82729,0,0,0-3.22437,1.28975,20.96855,20.96855,0,0,0-3.0094,1.97046,22.46379,22.46379,0,0,0-2.687,2.54368V22.41254a17.36674,17.36674,0,0,1,5.51727-3.65431,19.38382,19.38382,0,0,1,7.48774-1.28975,17.71616,17.71616,0,0,1,5.83972.93149,13.168,13.168,0,0,1,4.65747,2.65116,12.14717,12.14717,0,0,1,3.08105,4.335,14.42215,14.42215,0,0,1,1.14643,5.91138,19.794,19.794,0,0,1-.71656,5.51728,16.37682,16.37682,0,0,1-2.11377,4.65744,21.9123,21.9123,0,0,1-3.54681,4.19171,50.49374,50.49374,0,0,1-5.05151,4.08422q-3.61845,2.5795-5.983,4.40666a27.0065,27.0065,0,0,0-3.726,3.43934,10.10551,10.10551,0,0,0-1.93463,3.18856,11.321,11.321,0,0,0-.53741,3.65431h25.58014v5.26649H759.53716V67.15985a21.19832,21.19832,0,0,1,.71656-5.8039,15.07152,15.07152,0,0,1,2.36456-4.76493,26.75735,26.75735,0,0,1,4.2992-4.51414q2.687-2.25707,6.55627-5.08736a39.97093,39.97093,0,0,0,4.65747-3.83344,19.59948,19.59948,0,0,0,3.04529-3.6543,12.77537,12.77537,0,0,0,1.61218-3.69013,15.65145,15.65145,0,0,0,.50159-4.01257Z" transform="translate(0.00002)" fill="#00188f"/></svg>