<?xml version="1.0" encoding="UTF-8" standalone="no"?>
<svg
   xmlns:dc="http://purl.org/dc/elements/1.1/"
   xmlns:cc="http://creativecommons.org/ns#"
   xmlns:rdf="http://www.w3.org/1999/02/22-rdf-syntax-ns#"
   xmlns:svg="http://www.w3.org/2000/svg"
   xmlns="http://www.w3.org/2000/svg"
   xmlns:sodipodi="http://sodipodi.sourceforge.net/DTD/sodipodi-0.dtd"
   xmlns:inkscape="http://www.inkscape.org/namespaces/inkscape"
   viewBox="0 0 1280 187.28313"
   version="1.1"
   id="svg8"
   inkscape:version="1.0.1 (3bc2e813f5, 2020-09-07)"
   sodipodi:docname="Windows_Azure_(2012).svg">
  <defs
     id="defs2" />
  <sodipodi:namedview
     id="base"
     pagecolor="#ffffff"
     bordercolor="#666666"
     borderopacity="1.0"
     inkscape:pageopacity="0.0"
     inkscape:pageshadow="2"
     inkscape:zoom="0.57421875"
     inkscape:cx="640"
     inkscape:cy="93.641564"
     inkscape:document-units="mm"
     inkscape:current-layer="layer1"
     inkscape:document-rotation="0"
     showgrid="false"
     inkscape:snap-page="true"
     inkscape:window-width="1366"
     inkscape:window-height="705"
     inkscape:window-x="-8"
     inkscape:window-y="-8"
     inkscape:window-maximized="1" />
  <g
     inkscape:label="Layer 1"
     inkscape:groupmode="layer"
     id="layer1"
     transform="translate(123.22025,-143.0829)">
    <g
       id="g943"
       transform="matrix(4.8382896,0,0,4.8382896,472.955,-549.19356)">
      <path
         sodipodi:nodetypes="cccccccccccccccccccc"
         style="fill:#00aef0;fill-opacity:1;fill-rule:evenodd;stroke:none;stroke-width:0.441906;stroke-miterlimit:4;stroke-dasharray:none"
         inkscape:connector-curvature="0"
         d="m -123.22025,148.5633 15.77044,-2.14775 0.007,15.2116 -15.76266,0.0894 z m 15.76292,14.8167 0.0123,15.2251 -15.76274,-2.16715 -9.5e-4,-13.1598 z m 1.91174,-17.24536 20.910126,-3.05175 v 18.35102 l -20.910126,0.16597 z m 20.915015,17.38846 -0.0048,18.26833 -20.910115,-2.95121 -0.0294,-15.35118 z"
         id="path13" />
      <path
         d="m -42.39651,150.70965 -6.611993,23.41136 h -3.216204 l -4.816143,-17.12588 q -0.277541,-0.96323 -0.359169,-2.36725 h -0.0653 q -0.130608,1.20811 -0.4408,2.3346 l -4.848795,17.15853 h -3.183552 l -6.840555,-23.41136 h 3.003967 l 4.979402,17.9585 q 0.310192,1.19179 0.408148,2.35093 h 0.0653 q 0.08163,-0.99587 0.489777,-2.35093 l 5.191639,-17.9585 h 2.644796 l 4.946751,18.08911 q 0.27754,1.01221 0.391821,2.17135 h 0.0653 q 0.08163,-0.84896 0.4408,-2.23666 l 4.783491,-18.0238 z"
         style="font-style:normal;font-variant:normal;font-weight:normal;font-stretch:normal;font-size:33.3983px;line-height:1.25;font-family:'Segoe Pro';-inkscape-font-specification:'Segoe Pro';text-decoration:none;text-decoration-line:none;text-decoration-color:#000000;letter-spacing:-0.892641px;word-spacing:0px;white-space:pre;fill:#00aef0;fill-opacity:1;stroke-width:1.9343"
         id="path851" />
      <path
         d="m -37.169494,151.91816 c 0,0.50066 -0.174143,0.91969 -0.522429,1.25709 -0.348285,0.32652 -0.761875,0.48978 -1.240769,0.48978 -0.489777,0 -0.903366,-0.15782 -1.240769,-0.47345 -0.337402,-0.32652 -0.506103,-0.75099 -0.506103,-1.27342 0,-0.46801 0.163259,-0.87072 0.489777,-1.20812 0.337403,-0.34829 0.756434,-0.52243 1.257095,-0.52243 0.500661,0 0.919693,0.1687 1.257096,0.5061 0.337401,0.3374 0.506102,0.74555 0.506102,1.22445 z m -0.324953,22.20285 h -2.677449 v -16.71773 h 2.677449 z"
         style="font-style:normal;font-variant:normal;font-weight:normal;font-stretch:normal;font-size:33.3983px;line-height:1.25;font-family:'Segoe Pro';-inkscape-font-specification:'Segoe Pro';text-decoration:none;text-decoration-line:none;text-decoration-color:#000000;letter-spacing:-0.892641px;word-spacing:0px;white-space:pre;fill:#00aef0;fill-opacity:1;stroke-width:1.9343"
         id="path853"
         sodipodi:nodetypes="scscscsssccccc" />
      <path
         d="m -19.646568,174.12101 h -2.67745 v -9.53434 q 0,-5.30591 -3.885565,-5.30591 -1.975435,0 -3.314159,1.50198 -1.322399,1.48566 -1.322399,3.80393 v 9.53434 h -2.677449 v -16.71773 h 2.677449 v 2.77541 h 0.0653 q 1.877479,-3.18356 5.485504,-3.18356 2.759079,0 4.195759,1.79585 1.453006,1.79585 1.453006,5.09368 z"
         style="font-style:normal;font-variant:normal;font-weight:normal;font-stretch:normal;font-size:33.3983px;line-height:1.25;font-family:'Segoe Pro';-inkscape-font-specification:'Segoe Pro';text-decoration:none;text-decoration-line:none;text-decoration-color:#000000;letter-spacing:-0.892641px;word-spacing:0px;white-space:pre;fill:#00aef0;fill-opacity:1;stroke-width:1.9343"
         id="path855" />
      <path
         d="m -1.1984425,174.12101 h -2.6774488 v -2.84072 h -0.065304 q -1.8611534,3.24886 -5.7467195,3.24886 -3.1672262,0 -5.0447052,-2.2693 -1.87748,-2.28563 -1.87748,-6.08957 0,-4.14677 2.07339,-6.66096 2.089717,-2.51419 5.5834611,-2.51419 3.4284405,0 5.0120536,2.7101 h 0.065304 v -10.3343 h 2.6774488 z m -2.6774488,-7.5589 v -2.46521 q 0,-2.07339 -1.3877022,-3.44477 -1.3713763,-1.37137 -3.3468111,-1.37137 -2.4162344,0 -3.8365884,1.79584 -1.420354,1.77953 -1.420354,4.94676 0,2.87335 1.338724,4.55492 1.338725,1.66524 3.6080262,1.66524 2.2039975,0 3.6243514,-1.59993 1.4203541,-1.59994 1.4203541,-4.08148 z"
         style="font-style:normal;font-variant:normal;font-weight:normal;font-stretch:normal;font-size:33.3983px;line-height:1.25;font-family:'Segoe Pro';-inkscape-font-specification:'Segoe Pro';text-decoration:none;text-decoration-line:none;text-decoration-color:#000000;letter-spacing:-0.892641px;word-spacing:0px;white-space:pre;fill:#00aef0;fill-opacity:1;stroke-width:1.9343"
         id="path857" />
      <path
         d="m 18.669935,165.69684 q 0,3.98352 -2.269302,6.41608 -2.252975,2.41623 -6.056912,2.41623 -3.7059833,0 -5.9263068,-2.35093 -2.2039975,-2.36725 -2.2039975,-6.22017 0,-4.14678 2.2693011,-6.54669 2.2693012,-2.41623 6.2528252,-2.41623 3.722308,0 5.828349,2.3346 2.106043,2.31828 2.106043,6.36711 z m -2.742754,0.0979 q 0,-3.15091 -1.404027,-4.83247 -1.387702,-1.68157 -3.983522,-1.68157 -2.5794958,0 -4.0814792,1.73054 -1.5019836,1.71423 -1.5019836,4.8488 0,3.00397 1.5019836,4.70185 1.5183093,1.68157 4.0814792,1.68157 2.612145,0 3.999847,-1.66524 1.387702,-1.66524 1.387702,-4.78348 z"
         style="font-style:normal;font-variant:normal;font-weight:normal;font-stretch:normal;font-size:33.3983px;line-height:1.25;font-family:'Segoe Pro';-inkscape-font-specification:'Segoe Pro';text-decoration:none;text-decoration-line:none;text-decoration-color:#000000;letter-spacing:-0.892641px;word-spacing:0px;white-space:pre;fill:#00aef0;fill-opacity:1;stroke-width:1.9343"
         id="path859" />
      <path
         d="m 42.984307,157.40328 -5.012053,16.71773 h -2.775405 l -3.444766,-11.96689 q -0.179586,-0.62039 -0.261216,-1.53463 h -0.0653 q -0.04898,0.5714 -0.342844,1.50197 l -3.738633,11.99955 h -2.677449 l -5.044705,-16.71773 h 2.808057 l 3.444766,12.57094 q 0.163258,0.65304 0.228562,1.50199 h 0.130607 q 0.03266,-0.62039 0.310193,-1.53463 l 3.836588,-12.5383 h 2.448886 l 3.477419,12.6036 q 0.163258,0.63671 0.228562,1.50198 h 0.130608 q 0.03265,-0.78364 0.261214,-1.50198 l 3.412115,-12.6036 z"
         style="font-style:normal;font-variant:normal;font-weight:normal;font-stretch:normal;font-size:33.3983px;line-height:1.25;font-family:'Segoe Pro';-inkscape-font-specification:'Segoe Pro';text-decoration:none;text-decoration-line:none;text-decoration-color:#000000;letter-spacing:-0.892641px;word-spacing:0px;white-space:pre;fill:#00aef0;fill-opacity:1;stroke-width:1.9343"
         id="path861" />
      <path
         d="m 54.307746,169.64771 q 0,2.17134 -1.681569,3.5264 -1.665242,1.35504 -4.440647,1.35504 -2.367256,0 -4.14678,-1.0122 v -2.87336 q 1.975435,1.59993 4.342691,1.59993 3.183552,0 3.183552,-2.3346 0,-0.9469 -0.620384,-1.53464 -0.620385,-0.60405 -2.824382,-1.61626 -2.220324,-0.94691 -3.134574,-2.02441 -0.914251,-1.09384 -0.914251,-2.88968 0,-2.0734 1.665243,-3.4611 1.665242,-1.3877 4.22841,-1.3877 1.975434,0 3.575373,0.78364 v 2.69378 q -1.632591,-1.19179 -3.78761,-1.19179 -1.322399,0 -2.138694,0.65303 -0.79997,0.65304 -0.79997,1.68157 0,1.11017 0.620385,1.71422 0.620384,0.58773 2.563167,1.40403 2.383583,1.0122 3.346812,2.12237 0.963228,1.11016 0.963228,2.79173 z"
         style="font-style:normal;font-variant:normal;font-weight:normal;font-stretch:normal;font-size:33.3983px;line-height:1.25;font-family:'Segoe Pro';-inkscape-font-specification:'Segoe Pro';text-decoration:none;text-decoration-line:none;text-decoration-color:#000000;letter-spacing:-0.892641px;word-spacing:0px;white-space:pre;fill:#00aef0;fill-opacity:1;stroke-width:1.9343"
         id="path863" />
      <path
         d="m 82.548558,174.12101 h -3.036619 l -2.465213,-6.5467 h -9.942478 l -2.334604,6.5467 h -3.036619 l 8.946597,-23.41136 h 2.840708 z m -6.416083,-9.02823 -3.673328,-9.9588 q -0.130608,-0.35917 -0.375497,-1.58362 h -0.0653 q -0.146933,1.02853 -0.35917,1.58362 l -3.640677,9.9588 z"
         style="font-style:normal;font-variant:normal;font-weight:normal;font-stretch:normal;font-size:33.3983px;line-height:1.25;font-family:'Segoe Pro';-inkscape-font-specification:'Segoe Pro';text-decoration:none;text-decoration-line:none;text-decoration-color:#000000;letter-spacing:-0.892641px;word-spacing:0px;white-space:pre;fill:#00aef0;fill-opacity:1;stroke-width:1.9343"
         id="path865" />
      <path
         d="m 97.245447,158.17059 -9.909827,13.68112 h 9.795545 v 2.2693 H 83.401077 v -0.83263 l 9.8935,-13.61581 h -8.962923 v -2.26929 h 12.913793 z"
         style="font-style:normal;font-variant:normal;font-weight:normal;font-stretch:normal;font-size:33.3983px;line-height:1.25;font-family:'Segoe Pro';-inkscape-font-specification:'Segoe Pro';text-decoration:none;text-decoration-line:none;text-decoration-color:#000000;letter-spacing:-0.892641px;word-spacing:0px;white-space:pre;fill:#00aef0;fill-opacity:1;stroke-width:1.9343"
         id="path867" />
      <path
         d="m 113.29808,174.12101 h -2.67745 v -2.6448 h -0.0653 q -1.66524,3.05294 -5.14267,3.05294 -5.991591,0 -5.991591,-7.13442 v -9.99145 h 2.677441 v 9.56698 q 0,5.27326 4.04882,5.27326 1.99176,0 3.23253,-1.43667 1.24077,-1.45301 1.24077,-3.77128 v -9.63229 h 2.67745 z"
         style="font-style:normal;font-variant:normal;font-weight:normal;font-stretch:normal;font-size:33.3983px;line-height:1.25;font-family:'Segoe Pro';-inkscape-font-specification:'Segoe Pro';text-decoration:none;text-decoration-line:none;text-decoration-color:#000000;letter-spacing:-0.892641px;word-spacing:0px;white-space:pre;fill:#00aef0;fill-opacity:1;stroke-width:1.9343"
         id="path869" />
      <path
         d="m 126.35805,160.11337 q -0.71835,-0.53875 -2.04074,-0.53875 -1.77953,0 -2.88969,1.68157 -1.11017,1.66524 -1.11017,4.34269 v 8.52213 h -2.67744 v -16.71773 h 2.67744 v 3.44476 h 0.0653 q 0.55508,-1.73054 1.71422,-2.72642 1.15914,-1.01221 2.66112,-1.01221 1.04486,0 1.59995,0.22856 z"
         style="font-style:normal;font-variant:normal;font-weight:normal;font-stretch:normal;font-size:33.3983px;line-height:1.25;font-family:'Segoe Pro';-inkscape-font-specification:'Segoe Pro';text-decoration:none;text-decoration-line:none;text-decoration-color:#000000;letter-spacing:-0.892641px;word-spacing:0px;white-space:pre;fill:#00aef0;fill-opacity:1;stroke-width:1.9343"
         id="path871" />
      <path
         d="m 141.33605,166.4315 h -11.80363 q 0.0653,2.82438 1.48565,4.32637 1.43669,1.48565 3.9672,1.48565 2.84071,0 5.17531,-1.8285 v 2.49787 q -2.18767,1.61626 -5.81202,1.61626 -3.57537,0 -5.58346,-2.30194 -2.00808,-2.31829 -2.00808,-6.39977 0,-2.48153 0.99587,-4.52227 1.01221,-2.05707 2.77541,-3.18355 1.7632,-1.12649 3.91821,-1.12649 3.24886,0 5.06104,2.12237 1.8285,2.10604 1.8285,5.90997 z m -2.74275,-2.2693 q -0.0326,-2.31827 -1.12649,-3.5917 -1.07751,-1.28974 -3.05294,-1.28974 -1.86116,0 -3.18356,1.33873 -1.3224,1.33871 -1.66524,3.54271 z"
         style="font-style:normal;font-variant:normal;font-weight:normal;font-stretch:normal;font-size:33.3983px;line-height:1.25;font-family:'Segoe Pro';-inkscape-font-specification:'Segoe Pro';text-decoration:none;text-decoration-line:none;text-decoration-color:#000000;letter-spacing:-0.892641px;word-spacing:0px;white-space:pre;fill:#00aef0;fill-opacity:1;stroke-width:1.9343"
         id="path873" />
    </g>
  </g>
  <metadata
     id="metadata945">
    <rdf:RDF>
      <cc:Work
         rdf:about="">
        <dc:title></dc:title>
      </cc:Work>
    </rdf:RDF>
  </metadata>
</svg>
